<svg width="2000" height="2000" version="1.1" xmlns="http://www.w3.org/2000/svg" desc="Created with imagetracer.js version 1.2.6" ><path fill="rgb(42,4,8)" stroke="rgb(42,4,8)" stroke-width="1" opacity="0.8705882352941177" d="M 913.5 568 L 923.5 568 L 936.5 571 Q 950.4 576.6 959 587.5 Q 965.6 595.4 968 607.5 L 968 624.5 L 964 640.5 L 954 660.5 Q 939.7 684.2 919.5 702 L 917.5 702 L 902 686.5 Q 886.9 669.1 876 647.5 L 870 629.5 L 869 608.5 Q 872.7 588.7 886.5 579 L 900.5 571 L 913.5 568 Z M 915 590 L 903 595 L 894 605 L 891 616 L 893 625 L 898 633 L 907 639 L 918 642 L 926 641 L 937 635 Q 942 630 945 622 Q 947 608 941 602 Q 934 589 915 590 Z " /><path fill="rgb(42,4,8)" stroke="rgb(42,4,8)" stroke-width="1" opacity="0.8705882352941177" d="M 889.5 730 L 947.5 730 L 952 733.5 L 953 735.5 L 953 1321.5 L 949.5 1326 L 946.5 1327 L 890.5 1327 L 885 1323.5 L 884 1320.5 L 884 736.5 L 887.5 731 L 889.5 730 Z M 916 772 L 914 774 L 914 840 Q 916 843 922 841 L 923 840 L 923 774 Q 922 771 916 772 Z M 914 884 L 914 952 L 916 953 Q 921 954 923 952 L 923 885 L 923 884 L 914 884 Z M 914 996 L 914 1064 L 915 1064 L 923 1064 L 923 997 L 923 996 L 914 996 Z M 914 1107 L 914 1175 L 917 1176 L 923 1175 L 923 1108 L 923 1107 L 914 1107 Z M 914 1219 L 914 1287 L 915 1287 L 923 1287 L 923 1220 L 923 1219 L 914 1219 Z " /><path fill="rgb(80,132,249)" stroke="rgb(80,132,249)" stroke-width="1" opacity="0.9215686274509803" d="M 317.5 637 L 379.5 637 L 383 640.5 L 384 642.5 L 384 945.5 L 385 946.5 Q 382.7 947.8 384 952.5 L 379.5 958 L 371.5 959 L 370.5 958 L 326.5 958 L 323 954.5 L 321 951.5 L 314.5 939 Q 301.5 952 282.5 959 L 274.5 960 L 270.5 962 L 243.5 962 L 240.5 960 L 238.5 961 L 224.5 958 L 212.5 953 L 200.5 947 L 186 936.5 Q 186.8 934.3 184.5 935 L 177 929 L 161 906.5 L 151 881.5 L 151.5 880 Q 148.5 880.9 150 876.5 L 147 864.5 L 146 839.5 L 147 837.5 L 146 832.5 L 148 824.5 L 148 817.5 L 152 807.5 L 154 797.5 L 161 781.5 L 171 766 L 175 763.5 L 177 759 L 187 752 L 189.5 748 L 201.5 740 L 219.5 733 L 221.5 731 Q 228.5 731 232.5 728 L 237.5 728 L 244.5 726 L 252.5 726 L 253.5 725 L 255.5 725 L 258.5 726 L 263.5 725 Q 265.2 727.8 271.5 726 L 275.5 728 L 280.5 728 L 286.5 731 L 288.5 731 L 300.5 736 L 310.5 744 L 312 742.5 L 312 643.5 L 315.5 638 L 317.5 637 Z M 259 789 L 242 795 Q 238 794 239 797 L 237 798 Q 226 807 219 819 L 215 830 L 215 835 L 215 837 L 214 839 L 214 847 L 215 848 L 214 850 L 215 856 L 215 858 L 216 860 L 216 862 L 220 871 L 230 885 L 234 888 L 245 894 L 259 897 L 280 895 L 295 888 L 311 870 L 316 852 L 316 850 Q 319 846 317 839 L 317 837 L 311 818 L 305 811 L 303 808 L 286 794 L 268 789 L 259 789 Z " /><path fill="rgb(80,132,249)" stroke="rgb(80,132,249)" stroke-width="1" opacity="0.9215686274509803" d="M 756.5 724 L 779.5 725 L 795.5 729 L 814 737 Q 812.8 740 816.5 739 L 828 748.5 Q 827.3 750.8 829.5 750 L 836 755.5 Q 835.3 757.8 837.5 757 L 842 763.5 L 842 768.5 L 834.5 777 L 826 783 L 824.5 786 L 819 789 L 817.5 792 L 807.5 800 L 800.5 801 L 780.5 787 L 767.5 784 L 765.5 785 L 762.5 784 L 759.5 785 L 750.5 787 L 748 789.5 L 747 796.5 L 754.5 802 L 766.5 805 L 769.5 807 L 784.5 810 L 788.5 813 L 801.5 816 L 820.5 827 L 835 840.5 L 844 855.5 L 846 865.5 L 848 868.5 L 849 884.5 L 850 885.5 L 849 886.5 L 849 900.5 L 845 914.5 Q 838.9 927.4 829.5 937 Q 827.3 936.3 828 938.5 L 807.5 953 L 781.5 962 L 779.5 962 L 765.5 963 L 764.5 964 L 753.5 964 L 752.5 963 L 743.5 963 L 742.5 962 L 731.5 961 L 717.5 957 L 696.5 946 L 682 934.5 L 674.5 924 Q 671.9 924.8 673 921.5 Q 669 919.5 669 913.5 L 672 906.5 L 689.5 889 L 701.5 878 L 707.5 878 L 718 885.5 Q 717.3 887.8 719.5 887 L 727.5 893 L 743.5 900 L 762.5 901 L 770.5 899 L 775 894.5 Q 777.3 891.3 776 884.5 L 772.5 879 L 764.5 875 L 749.5 871 L 747.5 869 L 740.5 868 L 719.5 860 L 697 846 L 695.5 843 L 693 841.5 L 686 831.5 L 679 815.5 L 678 803.5 L 677 802.5 L 677 779.5 L 682 763.5 L 693 747 L 699 744 Q 697.9 741.3 700.5 742 L 707.5 737 L 723.5 730 L 743.5 725 L 745.5 725 L 755.5 725 L 756.5 724 Z " /><path fill="rgb(80,132,249)" stroke="rgb(80,132,249)" stroke-width="1" opacity="0.9215686274509803" d="M 1088.5 725 L 1090.5 725 L 1115.5 725 L 1133.5 730 L 1148 737 Q 1146.8 740 1150.5 739 L 1165.5 752 L 1170 739.5 L 1176.5 729 L 1179.5 728 L 1219.5 728 L 1225 731.5 L 1227 736.5 L 1227 929.5 L 1226 930.5 L 1225 948.5 L 1220 968.5 L 1210 990.5 L 1195.5 1009 L 1191 1012.5 Q 1191.8 1014.8 1189.5 1014 L 1173.5 1027 L 1155.5 1034 L 1153.5 1036 L 1149.5 1036 L 1141.5 1039 L 1139.5 1039 L 1123.5 1042 L 1121.5 1041 L 1120.5 1042 L 1098.5 1042 L 1095.5 1041 L 1091.5 1040 L 1089.5 1040 L 1072.5 1038 L 1064.5 1036 L 1056.5 1032 L 1053.5 1032 Q 1033.1 1023.4 1019 1008.5 L 1017 1001.5 L 1021 992.5 L 1039.5 967 Q 1042.1 967.8 1041 964.5 L 1048.5 959 L 1056.5 961 L 1062 965.5 Q 1061.2 968.1 1064.5 967 L 1073.5 973 L 1086.5 976 L 1088.5 978 L 1091.5 977 L 1100.5 979 L 1109.5 979 Q 1113.5 976 1121.5 977 Q 1125.8 973 1133 973 Q 1131.8 970 1135.5 971 L 1149 959.5 L 1157 945.5 L 1158 935.5 L 1154.5 938 L 1144.5 945 L 1133.5 949 L 1131.5 951 L 1130 950.5 Q 1130.8 953.1 1127.5 952 L 1118.5 955 L 1112.5 955 L 1104.5 957 L 1101.5 956 L 1099.5 957 L 1098.5 956 L 1087.5 956 Q 1084.6 953.4 1078.5 954 L 1056.5 947 L 1032 933 Q 1033.1 930.3 1030.5 931 L 1027 929 L 1027 927.5 L 1015 915.5 L 1004 899.5 L 1002 892.5 L 997 883.5 L 995 873.5 L 992 866.5 Q 993.7 860.3 991 858.5 L 991 828.5 L 993 820.5 L 993 818.5 L 998 799.5 L 1008 780.5 L 1021 762 L 1025 759.5 Q 1024.3 757.3 1026.5 758 L 1032.5 751 L 1036 750 L 1037.5 747 L 1055.5 736 L 1065.5 733 L 1069.5 730 L 1084.5 727 L 1088.5 725 Z M 1105 789 L 1090 793 L 1077 802 Q 1065 812 1062 830 L 1062 832 L 1061 837 L 1061 839 L 1060 842 L 1061 846 L 1060 849 L 1063 864 L 1068 875 L 1072 880 Q 1082 892 1101 896 L 1119 896 L 1124 895 Q 1139 891 1148 881 L 1150 878 Q 1149 875 1152 876 L 1152 874 L 1160 862 L 1161 857 L 1161 855 L 1163 846 L 1162 843 L 1162 841 L 1163 836 L 1156 818 L 1149 808 L 1137 797 Q 1134 798 1135 795 L 1121 791 L 1119 791 Q 1114 788 1105 789 Z " /><path fill="rgb(80,132,249)" stroke="rgb(80,132,249)" stroke-width="1" opacity="0.9215686274509803" d="M 1395.5 725 L 1397.5 725 L 1411.5 725 L 1416.5 727 L 1427.5 728 L 1429.5 730 L 1431.5 730 L 1451.5 739 L 1467 752.5 L 1469 755.5 L 1474.5 763 Q 1476.8 762.3 1476 764.5 L 1484 778.5 L 1484 781.5 L 1488 789.5 L 1492 814.5 L 1492 816.5 L 1492 1321.5 L 1487.5 1328 L 1484.5 1329 L 1482.5 1329 L 1439.5 1329 Q 1431.5 1328 1429 1321.5 L 1423.5 1309 L 1414.5 1317 L 1392.5 1329 L 1373.5 1333 L 1358.5 1333 L 1357.5 1332 L 1339.5 1330 L 1322.5 1324 L 1299.5 1311 L 1285 1297.5 L 1276 1287.5 L 1265 1268.5 Q 1264.1 1260.4 1260 1255.5 L 1257 1242.5 L 1257 1237.5 L 1255 1233.5 L 1255 1231.5 Q 1256.8 1225.3 1254 1223.5 L 1255 1220.5 L 1255 1196.5 L 1256 1195.5 L 1256 1193.5 L 1261 1169.5 L 1273 1144 Q 1276 1145.3 1275 1141.5 L 1279 1136 Q 1281.7 1137.1 1281 1134.5 L 1294.5 1120 L 1306.5 1111 L 1333.5 1099 L 1345.5 1096 L 1368.5 1094 L 1369.5 1095 L 1386.5 1096 L 1398.5 1100 L 1419.5 1113 L 1420 824.5 L 1418 815.5 L 1409 801 L 1397.5 794 L 1392.5 793 L 1377.5 793 Q 1362 796.5 1354 807.5 L 1346 824.5 L 1346 948.5 L 1342.5 954 Q 1340.3 953.3 1341 955.5 L 1337.5 958 L 1278.5 958 Q 1271.7 953.8 1273 941.5 L 1274 940.5 L 1274 897.5 L 1273 896.5 L 1273 780.5 L 1274 779.5 L 1274 734.5 L 1276 730 L 1280.5 728 L 1321.5 728 L 1330 734.5 L 1333 739.5 L 1335 752.5 L 1336.5 754 Q 1338.8 754.8 1338 752.5 L 1357.5 737 L 1379.5 728 L 1381.5 728 L 1390.5 727 L 1395.5 725 Z M 1365 1159 L 1348 1165 L 1343 1169 L 1339 1174 L 1336 1175 L 1327 1191 L 1323 1205 Q 1321 1218 1324 1227 L 1329 1241 L 1336 1251 L 1338 1254 L 1341 1255 L 1342 1258 L 1349 1262 L 1366 1267 L 1378 1267 L 1389 1265 L 1402 1259 L 1405 1256 Q 1407 1257 1406 1255 L 1409 1253 Q 1418 1244 1423 1231 L 1425 1221 L 1425 1208 L 1425 1206 L 1421 1192 L 1416 1183 L 1412 1179 L 1412 1176 L 1395 1164 L 1378 1159 L 1368 1159 L 1367 1160 L 1365 1159 Z " /><path fill="rgb(80,132,249)" stroke="rgb(80,132,249)" stroke-width="1" opacity="0.9215686274509803" d="M 522.5 726 L 543.5 726 L 544.5 727 L 546.5 727 Q 559.6 726.9 567.5 732 L 569 731.5 Q 568.1 734.9 573.5 733 L 592.5 742 L 601 748.5 Q 600.3 750.8 602.5 750 L 606 752 Q 604.9 754.7 607.5 754 L 618 767 L 621 768.5 L 623 773 Q 625.7 771.9 625 774.5 L 634 791.5 L 640 810.5 L 640 812.5 L 641 822.5 L 643 827.5 L 643 849.5 L 642 852.5 Q 640.5 860.1 635.5 864 L 634 863.5 Q 634.8 865.8 632.5 865 L 627.5 867 L 625.5 867 L 493.5 867 L 490 868 L 493 875.5 L 503 889 L 519.5 899 L 528.5 901 L 551.5 901 L 562.5 899 Q 566.3 894.8 573.5 894 L 586 884.5 Q 585.3 882.3 587.5 883 L 593.5 879 L 596.5 879 L 603 883.5 L 607 891 Q 609.7 889.9 609 892.5 L 612 896.5 L 612 899 L 616 901.5 L 617 905 Q 619.7 903.9 619 906.5 L 627 917.5 L 628 924.5 L 624.5 930 L 622 931.5 Q 622.8 933.8 620.5 933 L 614 937 Q 615.1 939.7 612.5 939 L 604.5 945 L 575.5 958 L 555.5 962 L 524.5 962 L 501.5 957 Q 497.7 952.8 490.5 952 L 471.5 942 L 459 931.5 Q 459.8 929.3 457.5 930 L 448 920.5 L 448 919 Q 445.3 920.1 446 917.5 Q 441.3 916.1 442 911 L 439 909.5 L 427 885.5 L 427 882.5 L 424 877.5 L 421 866.5 Q 422.8 860.3 420 858.5 L 420 829.5 L 421 828.5 L 422 814.5 L 434 783 Q 437 784.3 436 780.5 L 445.5 767 L 448 765.5 L 462.5 750 L 473.5 742 L 487.5 735 L 498 733 Q 496.8 730 500.5 731 L 522.5 726 Z M 529 784 L 521 786 L 508 794 L 506 797 L 503 799 Q 504 801 501 800 L 496 810 Q 494 811 497 812 L 501 811 L 512 811 L 513 812 L 568 812 L 570 811 L 572 811 L 575 812 L 573 807 L 567 799 L 556 789 L 549 786 L 541 785 L 538 784 Q 532 783 531 785 L 529 784 Z " /><path fill="rgb(80,132,249)" stroke="rgb(80,132,249)" stroke-width="1" opacity="0.9215686274509803" d="M 1560.5 997 L 1575.5 997 L 1580.5 998 Q 1594.4 1003.1 1602 1014.5 L 1607 1025.5 Q 1605.8 1030.3 1608 1031.5 L 1608 1033.5 Q 1609.5 1039 1607 1040.5 L 1608 1042.5 L 1603 1055.5 L 1592.5 1067 L 1580.5 1073 L 1564.5 1074 L 1561.5 1073 Q 1545.2 1071.3 1538 1060.5 L 1532 1049.5 L 1530 1032.5 L 1533 1019.5 L 1540 1008 L 1546.5 1003 L 1560.5 997 Z " /><path fill="rgb(80,132,249)" stroke="rgb(80,132,249)" stroke-width="1" opacity="0.9215686274509803" d="M 426.5 1056 L 434.5 1056 L 435.5 1057 L 442.5 1057 L 452.5 1059 Q 468.3 1064.6 480 1073 Q 478.9 1075.7 481.5 1075 L 486 1078 L 488.5 1082 Q 490.8 1081.3 490 1083.5 L 492 1087 L 495 1088.5 L 503 1101.5 L 503 1105 Q 505.7 1103.9 505 1106.5 L 507 1110.5 L 511 1134.5 L 511 1136.5 L 507 1161.5 Q 500.3 1178.8 488.5 1191 Q 486.3 1190.3 487 1192.5 L 474.5 1203 L 461.5 1210 L 444.5 1215 L 424.5 1216 L 407.5 1213 L 393.5 1207 L 385.5 1201 L 383 1201 Q 384.1 1198.3 381.5 1199 L 371 1189.5 Q 371.8 1187.3 369.5 1188 L 356 1166.5 Q 358.5 1165 355 1163.5 L 351 1148.5 L 351 1123.5 L 353 1113.5 L 358 1101.5 L 368 1086 Q 371 1087.3 370 1083.5 L 374 1081 L 377.5 1076 L 391.5 1066 L 411.5 1058 L 413.5 1059 L 426.5 1056 Z M 425 1101 Q 415 1104 409 1109 L 400 1123 L 399 1132 L 399 1134 Q 397 1135 398 1140 L 398 1142 L 400 1150 L 407 1161 Q 412 1169 425 1170 L 428 1171 L 434 1171 L 445 1168 L 454 1161 L 461 1149 L 462 1144 L 462 1130 L 459 1120 Q 460 1117 457 1118 L 455 1114 Q 450 1106 441 1102 L 425 1101 Z " /><path fill="rgb(80,132,249)" stroke="rgb(80,132,249)" stroke-width="1" opacity="0.9215686274509803" d="M 775.5 1056 L 784.5 1057 L 797.5 1061 Q 811.6 1067.9 822 1078.5 L 823 1084.5 Q 815.1 1100.6 803.5 1113 L 795.5 1112 L 782.5 1102 Q 775.4 1099.6 764.5 1101 L 760.5 1102 L 752 1109.5 L 748 1119.5 L 749 1122.5 L 748 1123.5 L 748 1209.5 L 745.5 1212 L 743.5 1213 L 702.5 1213 L 699 1209.5 L 699 1061.5 L 701.5 1059 L 729.5 1058 L 735 1061 L 740 1075 Q 742.7 1076.1 742 1073.5 L 755.5 1061 L 762.5 1058 L 774.5 1057 L 775.5 1056 Z " /><path fill="rgb(80,132,249)" stroke="rgb(80,132,249)" stroke-width="1" opacity="0.9215686274509803" d="M 193.5 1058 L 201.5 1058 L 202.5 1059 L 203.5 1058 L 217.5 1058 L 220.5 1059 L 223.5 1058 L 227.5 1059 L 229.5 1058 L 234 1061.5 L 245 1091.5 L 247 1101.5 L 252 1111.5 L 253 1117.5 L 256 1121.5 L 258 1131.5 L 261 1135.5 L 264 1144.5 L 264 1148.5 L 266.5 1152 L 271 1144.5 L 272 1138.5 L 277 1127.5 L 279 1117.5 L 283 1109.5 L 291 1081.5 L 294 1076.5 L 295 1069.5 L 301.5 1059 L 306.5 1058 L 337.5 1058 L 340.5 1059 L 343.5 1058 L 349 1061.5 L 349 1070.5 L 344 1079.5 L 341 1089.5 L 338 1093.5 L 335 1105.5 L 332 1109.5 L 325 1131.5 Q 319.9 1138.4 318 1148.5 L 316 1150.5 L 312 1164 Q 309 1162.8 310 1166.5 L 300 1195 Q 296.3 1193.7 298 1199.5 L 292 1211.5 L 291 1217.5 L 287 1224.5 L 284 1235.5 L 275 1253.5 L 273 1262.5 L 267.5 1271 L 265.5 1272 L 228.5 1272 L 222 1267.5 L 222 1260.5 L 225 1255.5 L 228 1243.5 L 231 1239.5 L 242 1209.5 L 232 1187.5 L 220 1153.5 L 217 1149.5 L 214 1138.5 L 194 1092.5 Q 191.7 1080.3 186 1071.5 L 186 1062.5 L 188.5 1059 L 193.5 1058 Z " /><path fill="rgb(80,132,249)" stroke="rgb(80,132,249)" stroke-width="1" opacity="0.9215686274509803" d="M 533.5 1058 L 535.5 1058 L 538.5 1059 L 541.5 1058 L 542.5 1059 L 550.5 1059 L 551.5 1058 L 560.5 1058 L 562.5 1058 L 570.5 1058 L 571.5 1059 L 573.5 1059 L 576 1060.5 L 577 1063.5 L 577 1150.5 L 580 1157.5 L 584.5 1163 L 589 1165 Q 587.8 1168 591.5 1167 Q 596.1 1169.9 604.5 1169 L 615 1166 Q 613.9 1163.3 616.5 1164 L 620 1160.5 L 625 1150.5 L 625 1062.5 L 627.5 1059 Q 635 1060.5 638.5 1058 L 639.5 1059 L 647.5 1059 L 648.5 1058 L 662.5 1058 L 663.5 1059 L 671.5 1059 L 674 1061.5 L 674 1209.5 L 670.5 1213 L 641.5 1213 L 635 1207.5 L 631.5 1197 L 628 1199 L 626.5 1202 L 618.5 1208 L 604.5 1214 L 584.5 1216 L 583.5 1215 L 573.5 1215 L 559.5 1210 Q 549.1 1204.3 542 1195.5 L 534 1182.5 L 529 1165.5 L 529 1163.5 L 529 1154.5 L 528 1153.5 L 529 1150.5 L 529 1148.5 L 529 1072.5 L 528 1070.5 L 529 1068.5 L 528 1066.5 L 529 1061.5 L 531.5 1059 L 533.5 1058 Z " /><path fill="rgb(80,132,249)" stroke="rgb(80,132,249)" stroke-width="1" opacity="0.9215686274509803" d="M 1124.5 1094 L 1126.5 1095 L 1127.5 1094 L 1136.5 1094 L 1138.5 1094 L 1151.5 1096 L 1153.5 1098 L 1160.5 1099 L 1169.5 1104 L 1172.5 1104 Q 1187.1 1111.4 1197 1123.5 L 1199 1126.5 L 1205 1133.5 L 1214 1151.5 L 1217 1166.5 L 1219 1170.5 L 1219 1178.5 L 1220 1179.5 L 1220 1322.5 L 1215.5 1328 L 1212.5 1329 L 1155.5 1329 L 1151 1325.5 L 1151 1324 L 1149 1323.5 L 1149 1318.5 L 1148 1316.5 L 1149 1313.5 L 1148 1312.5 L 1148 1192.5 L 1145 1182.5 L 1138 1171 L 1125.5 1164 L 1120.5 1163 L 1104.5 1163 L 1096.5 1165 L 1086 1172.5 L 1084.5 1175 Q 1082.3 1174.3 1083 1176.5 L 1078 1182.5 L 1075 1191.5 L 1074 1206.5 L 1073 1207.5 L 1073 1217.5 L 1074 1218.5 L 1074 1227.5 L 1073 1228.5 L 1073 1298.5 L 1074 1299.5 L 1074 1317.5 L 1069.5 1325 L 1062.5 1329 L 1060.5 1329 L 1008.5 1329 L 1002 1324.5 L 1001 1322.5 L 1001 1105.5 L 1002 1101.5 L 1004.5 1099 L 1010.5 1097 L 1046.5 1097 Q 1054 1098.4 1058 1103.5 L 1061 1109.5 L 1061 1114.5 L 1064.5 1124 L 1066.5 1121 L 1087.5 1105 L 1111.5 1096 L 1123.5 1095 L 1124.5 1094 Z " /><path fill="rgb(80,132,249)" stroke="rgb(80,132,249)" stroke-width="1" opacity="0.9215686274509803" d="M 1731.5 1095 L 1733.5 1095 L 1763.5 1095 L 1775.5 1098 L 1794.5 1107 L 1803 1113.5 Q 1802.3 1115.8 1804.5 1115 L 1809 1118.5 L 1811.5 1122 Q 1814.5 1122.9 1813 1118.5 L 1821.5 1099 L 1825.5 1097 L 1868.5 1097 L 1875 1100.5 L 1876 1102.5 L 1876 1322.5 L 1871.5 1328 L 1869.5 1329 L 1824.5 1329 L 1821.5 1328 L 1818 1327 L 1814 1321.5 L 1811 1311.5 L 1808.5 1308 L 1795.5 1319 L 1775.5 1329 L 1773.5 1329 L 1754.5 1333 L 1739.5 1333 L 1727.5 1330 L 1725.5 1330 L 1711.5 1327 L 1687 1316 Q 1688.1 1313.3 1685.5 1314 L 1670 1304 L 1667.5 1300 L 1664 1297.5 Q 1649.2 1281.8 1640 1260.5 L 1640 1256.5 L 1636 1249.5 L 1633 1232.5 L 1633 1230.5 L 1632 1227.5 L 1632 1225.5 L 1632 1202.5 L 1633 1201.5 L 1632 1199.5 L 1634 1195.5 Q 1632.5 1190 1635 1188.5 L 1634 1186.5 Q 1637 1182.5 1637 1175.5 L 1640 1171.5 L 1642 1163.5 L 1646 1155.5 L 1658 1137.5 L 1672.5 1122 L 1678.5 1117 L 1680.5 1117 L 1689.5 1110 L 1697.5 1106 L 1717.5 1098 Q 1726.1 1098.1 1731.5 1095 Z M 1747 1159 L 1731 1164 L 1720 1171 L 1718 1174 L 1716 1175 L 1706 1189 L 1701 1205 L 1701 1221 L 1703 1230 L 1707 1241 L 1719 1255 Q 1721 1254 1720 1257 L 1731 1263 L 1744 1266 L 1747 1267 L 1757 1267 L 1771 1264 L 1782 1258 L 1786 1252 L 1789 1251 Q 1788 1248 1791 1249 L 1800 1235 L 1801 1229 Q 1804 1227 1802 1226 L 1804 1221 L 1804 1209 L 1801 1195 L 1791 1179 L 1778 1166 L 1769 1162 L 1754 1159 L 1750 1160 L 1747 1159 Z " /><path fill="rgb(80,132,249)" stroke="rgb(80,132,249)" stroke-width="1" opacity="0.9215686274509803" d="M 1540.5 1097 L 1596.5 1097 L 1603 1099 L 1606 1105.5 L 1606 1320.5 L 1600.5 1328 L 1598.5 1329 L 1596.5 1329 L 1541.5 1329 L 1540.5 1328 L 1538.5 1328 Q 1534.5 1328.5 1534 1325.5 L 1532 1321.5 L 1532 1106.5 L 1533 1101.5 L 1535.5 1099 L 1540.5 1097 Z " /><path fill="rgb(0,0,0)" stroke="rgb(0,0,0)" stroke-width="1" opacity="0" d="M 0 0 L 2000 0 L 2000 2000 L 0 2000 L 0 0 Z M 914 568 L 901 571 L 887 579 Q 873 589 869 609 L 870 630 L 876 648 Q 887 669 902 687 L 918 702 L 920 702 Q 940 684 954 661 L 964 641 L 968 625 L 968 608 Q 966 595 959 588 Q 950 577 937 571 L 924 568 L 914 568 Z M 318 637 L 316 638 L 312 644 L 312 743 L 311 744 L 301 736 L 289 731 L 287 731 L 281 728 L 276 728 L 272 726 Q 265 728 264 725 L 259 726 L 256 725 L 254 725 L 253 726 L 245 726 L 238 728 L 233 728 Q 228 731 222 731 L 220 733 L 202 740 L 190 748 L 187 752 L 177 759 L 175 764 L 171 766 L 161 782 L 154 798 L 152 808 L 148 818 L 148 825 L 146 833 L 147 838 L 146 840 L 147 865 L 150 877 Q 149 881 152 880 L 151 882 L 161 907 L 177 929 L 185 935 Q 187 934 186 937 L 201 947 L 213 953 L 225 958 L 239 961 L 241 960 L 244 962 L 271 962 L 275 960 L 283 959 Q 301 952 315 939 L 321 952 L 323 955 L 327 958 L 371 958 L 372 959 L 380 958 L 384 953 Q 383 948 385 947 L 384 946 L 384 643 L 383 641 L 380 637 L 318 637 Z M 757 724 L 756 725 L 746 725 L 744 725 L 724 730 L 708 737 L 701 742 Q 698 741 699 744 L 693 747 L 682 764 L 677 780 L 677 803 L 678 804 L 679 816 L 686 832 L 693 842 L 696 843 L 697 846 L 720 860 L 741 868 L 748 869 L 750 871 L 765 875 L 773 879 L 776 885 Q 777 891 775 895 L 771 899 L 763 901 L 744 900 L 728 893 L 720 887 Q 717 888 718 886 L 708 878 L 702 878 L 690 889 L 672 907 L 669 914 Q 669 920 673 922 Q 672 925 675 924 L 682 935 L 697 946 L 718 957 L 732 961 L 743 962 L 744 963 L 753 963 L 754 964 L 765 964 L 766 963 L 780 962 L 782 962 L 808 953 L 828 939 Q 827 936 830 937 Q 839 927 845 915 L 849 901 L 849 887 L 850 886 L 849 885 L 848 869 L 846 866 L 844 856 L 835 841 L 821 827 L 802 816 L 789 813 L 785 810 L 770 807 L 767 805 L 755 802 L 747 797 L 748 790 L 751 787 L 760 785 L 763 784 L 766 785 L 768 784 L 781 787 L 801 801 L 808 800 L 818 792 L 819 789 L 825 786 L 826 783 L 835 777 L 842 769 L 842 764 L 838 757 Q 835 758 836 756 L 830 750 Q 827 751 828 749 L 817 739 Q 813 740 814 737 L 796 729 L 780 725 L 757 724 Z M 1089 725 L 1085 727 L 1070 730 L 1066 733 L 1056 736 L 1038 747 L 1036 750 L 1033 751 L 1027 758 Q 1024 757 1025 760 L 1021 762 L 1008 781 L 998 800 L 993 819 L 993 821 L 991 829 L 991 859 Q 994 860 992 867 L 995 874 L 997 884 L 1002 893 L 1004 900 L 1015 916 L 1027 928 L 1027 929 L 1031 931 Q 1033 930 1032 933 L 1057 947 L 1079 954 Q 1085 953 1088 956 L 1099 956 L 1100 957 L 1102 956 L 1105 957 L 1113 955 L 1119 955 L 1128 952 Q 1131 953 1130 951 L 1132 951 L 1134 949 L 1145 945 L 1155 938 L 1158 936 L 1157 946 L 1149 960 L 1136 971 Q 1132 970 1133 973 Q 1126 973 1122 977 Q 1114 976 1110 979 L 1101 979 L 1092 977 L 1089 978 L 1087 976 L 1074 973 L 1065 967 Q 1061 968 1062 966 L 1057 961 L 1049 959 L 1041 965 Q 1042 968 1040 967 L 1021 993 L 1017 1002 L 1019 1009 Q 1033 1023 1054 1032 L 1057 1032 L 1065 1036 L 1073 1038 L 1090 1040 L 1092 1040 L 1096 1041 L 1099 1042 L 1121 1042 L 1122 1041 L 1124 1042 L 1140 1039 L 1142 1039 L 1150 1036 L 1154 1036 L 1156 1034 L 1174 1027 L 1190 1014 Q 1192 1015 1191 1013 L 1196 1009 L 1210 991 L 1220 969 L 1225 949 L 1226 931 L 1227 930 L 1227 737 L 1225 732 L 1220 728 L 1180 728 L 1177 729 L 1170 740 L 1166 752 L 1151 739 Q 1147 740 1148 737 L 1134 730 L 1116 725 L 1091 725 L 1089 725 Z M 1396 725 L 1391 727 L 1382 728 L 1380 728 L 1358 737 L 1338 753 Q 1339 755 1337 754 L 1335 753 L 1333 740 L 1330 735 L 1322 728 L 1281 728 L 1276 730 L 1274 735 L 1274 780 L 1273 781 L 1273 897 L 1274 898 L 1274 941 L 1273 942 Q 1272 954 1279 958 L 1338 958 L 1341 956 Q 1340 953 1343 954 L 1346 949 L 1346 825 L 1354 808 Q 1362 797 1378 793 L 1393 793 L 1398 794 L 1409 801 L 1418 816 L 1420 825 L 1420 1113 L 1399 1100 L 1387 1096 L 1370 1095 L 1369 1094 L 1346 1096 L 1334 1099 L 1307 1111 L 1295 1120 L 1281 1135 Q 1282 1137 1279 1136 L 1275 1142 Q 1276 1145 1273 1144 L 1261 1170 L 1256 1194 L 1256 1196 L 1255 1197 L 1255 1221 L 1254 1224 Q 1257 1225 1255 1232 L 1255 1234 L 1257 1238 L 1257 1243 L 1260 1256 Q 1264 1260 1265 1269 L 1276 1288 L 1285 1298 L 1300 1311 L 1323 1324 L 1340 1330 L 1358 1332 L 1359 1333 L 1374 1333 L 1393 1329 L 1415 1317 L 1424 1309 L 1429 1322 Q 1432 1328 1440 1329 L 1483 1329 L 1485 1329 L 1488 1328 L 1492 1322 L 1492 817 L 1492 815 L 1488 790 L 1484 782 L 1484 779 L 1476 765 Q 1477 762 1475 763 L 1469 756 L 1467 753 L 1452 739 L 1432 730 L 1430 730 L 1428 728 L 1417 727 L 1412 725 L 1398 725 L 1396 725 Z M 523 726 L 501 731 Q 497 730 498 733 L 488 735 L 474 742 L 463 750 L 448 766 L 446 767 L 436 781 Q 437 784 434 783 L 422 815 L 421 829 L 420 830 L 420 859 Q 423 860 421 867 L 424 878 L 427 883 L 427 886 L 439 910 L 442 911 Q 441 916 446 918 Q 445 920 448 919 L 448 921 L 458 930 Q 460 929 459 932 L 472 942 L 491 952 Q 498 953 502 957 L 525 962 L 556 962 L 576 958 L 605 945 L 613 939 Q 615 940 614 937 L 621 933 Q 623 934 622 932 L 625 930 L 628 925 L 627 918 L 619 907 Q 620 904 617 905 L 616 902 L 612 899 L 612 897 L 609 893 Q 610 890 607 891 L 603 884 L 597 879 L 594 879 L 588 883 Q 585 882 586 885 L 574 894 Q 566 895 563 899 L 552 901 L 529 901 L 520 899 L 503 889 L 493 876 L 490 868 L 494 867 L 626 867 L 628 867 L 633 865 Q 635 866 634 864 L 636 864 Q 641 860 642 853 L 643 850 L 643 828 L 641 823 L 640 813 L 640 811 L 634 792 L 625 775 Q 626 772 623 773 L 621 769 L 618 767 L 608 754 Q 605 755 606 752 L 603 750 Q 600 751 601 749 L 593 742 L 574 733 Q 568 735 569 732 L 568 732 Q 560 727 547 727 L 545 727 L 544 726 L 523 726 Z M 890 730 L 888 731 L 884 737 L 884 1321 L 885 1324 L 891 1327 L 947 1327 L 950 1326 L 953 1322 L 953 736 L 952 734 L 948 730 L 890 730 Z M 1561 997 L 1547 1003 L 1540 1008 L 1533 1020 L 1530 1033 L 1532 1050 L 1538 1061 Q 1545 1071 1562 1073 L 1565 1074 L 1581 1073 L 1593 1067 L 1603 1056 L 1608 1043 L 1607 1041 Q 1610 1039 1608 1034 L 1608 1032 Q 1606 1030 1607 1026 L 1602 1015 Q 1594 1003 1581 998 L 1576 997 L 1561 997 Z M 427 1056 L 414 1059 L 412 1058 L 392 1066 L 378 1076 L 374 1081 L 370 1084 Q 371 1087 368 1086 L 358 1102 L 353 1114 L 351 1124 L 351 1149 L 355 1164 Q 358 1165 356 1167 L 370 1188 Q 372 1187 371 1190 L 382 1199 Q 384 1198 383 1201 L 386 1201 L 394 1207 L 408 1213 L 425 1216 L 445 1215 L 462 1210 L 475 1203 L 487 1193 Q 486 1190 489 1191 Q 500 1179 507 1162 L 511 1137 L 511 1135 L 507 1111 L 505 1107 Q 506 1104 503 1105 L 503 1102 L 495 1089 L 492 1087 L 490 1084 Q 491 1081 489 1082 L 486 1078 L 482 1075 Q 479 1076 480 1073 Q 468 1065 453 1059 L 443 1057 L 436 1057 L 435 1056 L 427 1056 Z M 776 1056 L 775 1057 L 763 1058 L 756 1061 L 742 1074 Q 743 1076 740 1075 L 735 1061 L 730 1058 L 702 1059 L 699 1062 L 699 1210 L 703 1213 L 744 1213 L 746 1212 L 748 1210 L 748 1124 L 749 1123 L 748 1120 L 752 1110 L 761 1102 L 765 1101 Q 775 1100 783 1102 L 796 1112 L 804 1113 Q 815 1101 823 1085 L 822 1079 Q 812 1068 798 1061 L 785 1057 L 776 1056 Z M 194 1058 L 189 1059 L 186 1063 L 186 1072 Q 192 1080 194 1093 L 214 1139 L 217 1150 L 220 1154 L 232 1188 L 242 1210 L 231 1240 L 228 1244 L 225 1256 L 222 1261 L 222 1268 L 229 1272 L 266 1272 L 268 1271 L 273 1263 L 275 1254 L 284 1236 L 287 1225 L 291 1218 L 292 1212 L 298 1200 Q 296 1194 300 1195 L 310 1167 Q 309 1163 312 1164 L 316 1151 L 318 1149 Q 320 1138 325 1132 L 332 1110 L 335 1106 L 338 1094 L 341 1090 L 344 1080 L 349 1071 L 349 1062 L 344 1058 L 341 1059 L 338 1058 L 307 1058 L 302 1059 L 295 1070 L 294 1077 L 291 1082 L 283 1110 L 279 1118 L 277 1128 L 272 1139 L 271 1145 L 267 1152 L 264 1149 L 264 1145 L 261 1136 L 258 1132 L 256 1122 L 253 1118 L 252 1112 L 247 1102 L 245 1092 L 234 1062 L 230 1058 L 228 1059 L 224 1058 L 221 1059 L 218 1058 L 204 1058 L 203 1059 L 202 1058 L 194 1058 Z M 534 1058 L 532 1059 L 529 1062 L 528 1067 L 529 1069 L 528 1071 L 529 1073 L 529 1149 L 529 1151 L 528 1154 L 529 1155 L 529 1164 L 529 1166 L 534 1183 L 542 1196 Q 549 1204 560 1210 L 574 1215 L 584 1215 L 585 1216 L 605 1214 L 619 1208 L 627 1202 L 628 1199 L 632 1197 L 635 1208 L 642 1213 L 671 1213 L 674 1210 L 674 1062 L 672 1059 L 664 1059 L 663 1058 L 649 1058 L 648 1059 L 640 1059 L 639 1058 Q 635 1061 628 1059 L 625 1063 L 625 1151 L 620 1161 L 617 1164 Q 614 1163 615 1166 L 605 1169 Q 596 1170 592 1167 Q 588 1168 589 1165 L 585 1163 L 580 1158 L 577 1151 L 577 1064 L 576 1061 L 574 1059 L 572 1059 L 571 1058 L 563 1058 L 561 1058 L 552 1058 L 551 1059 L 543 1059 L 542 1058 L 539 1059 L 536 1058 L 534 1058 Z M 1125 1094 L 1124 1095 L 1112 1096 L 1088 1105 L 1067 1121 L 1065 1124 L 1061 1115 L 1061 1110 L 1058 1104 Q 1054 1098 1047 1097 L 1011 1097 L 1005 1099 L 1002 1102 L 1001 1106 L 1001 1323 L 1002 1325 L 1009 1329 L 1061 1329 L 1063 1329 L 1070 1325 L 1074 1318 L 1074 1300 L 1073 1299 L 1073 1229 L 1074 1228 L 1074 1219 L 1073 1218 L 1073 1208 L 1074 1207 L 1075 1192 L 1078 1183 L 1083 1177 Q 1082 1174 1085 1175 L 1086 1173 L 1097 1165 L 1105 1163 L 1121 1163 L 1126 1164 L 1138 1171 L 1145 1183 L 1148 1193 L 1148 1313 L 1149 1314 L 1148 1317 L 1149 1319 L 1149 1324 L 1151 1324 L 1151 1326 L 1156 1329 L 1213 1329 L 1216 1328 L 1220 1323 L 1220 1180 L 1219 1179 L 1219 1171 L 1217 1167 L 1214 1152 L 1205 1134 L 1199 1127 L 1197 1124 Q 1187 1111 1173 1104 L 1170 1104 L 1161 1099 L 1154 1098 L 1152 1096 L 1139 1094 L 1137 1094 L 1128 1094 L 1127 1095 L 1125 1094 Z M 1732 1095 Q 1726 1098 1718 1098 L 1698 1106 L 1690 1110 L 1681 1117 L 1679 1117 L 1673 1122 L 1658 1138 L 1646 1156 L 1642 1164 L 1640 1172 L 1637 1176 Q 1637 1182 1634 1187 L 1635 1189 Q 1633 1190 1634 1196 L 1632 1200 L 1633 1202 L 1632 1203 L 1632 1226 L 1632 1228 L 1633 1231 L 1633 1233 L 1636 1250 L 1640 1257 L 1640 1261 Q 1649 1282 1664 1298 L 1668 1300 L 1670 1304 L 1686 1314 Q 1688 1313 1687 1316 L 1712 1327 L 1726 1330 L 1728 1330 L 1740 1333 L 1755 1333 L 1774 1329 L 1776 1329 L 1796 1319 L 1809 1308 L 1811 1312 L 1814 1322 L 1818 1327 L 1822 1328 L 1825 1329 L 1870 1329 L 1872 1328 L 1876 1323 L 1876 1103 L 1875 1101 L 1869 1097 L 1826 1097 L 1822 1099 L 1813 1119 Q 1814 1123 1812 1122 L 1809 1119 L 1805 1115 Q 1802 1116 1803 1114 L 1795 1107 L 1776 1098 L 1764 1095 L 1734 1095 L 1732 1095 Z M 1541 1097 L 1536 1099 L 1533 1102 L 1532 1107 L 1532 1322 L 1534 1326 Q 1535 1329 1539 1328 L 1541 1328 L 1542 1329 L 1597 1329 L 1599 1329 L 1601 1328 L 1606 1321 L 1606 1106 L 1603 1099 L 1597 1097 L 1541 1097 Z " /><path fill="rgb(0,0,0)" stroke="rgb(0,0,0)" stroke-width="1" opacity="0" d="M 914.5 590 Q 934.1 589.4 941 601.5 Q 947 607.5 945 621.5 Q 942.5 630 936.5 635 L 925.5 641 L 917.5 642 L 906.5 639 L 898 632.5 L 893 624.5 L 891 615.5 L 894 604.5 L 902.5 595 L 914.5 590 Z " /><path fill="rgb(0,0,0)" stroke="rgb(0,0,0)" stroke-width="1" opacity="0" d="M 915.5 772 Q 921.5 770.5 923 773.5 L 923 839.5 L 921.5 841 Q 915.5 842.5 914 839.5 L 914 773.5 L 915.5 772 Z " /><path fill="rgb(0,0,0)" stroke="rgb(0,0,0)" stroke-width="1" opacity="0" d="M 528.5 784 L 530.5 785 Q 532 782.5 537.5 784 L 540.5 785 L 548.5 786 L 555.5 789 L 567 798.5 L 573 806.5 L 575 812 L 571.5 811 L 569.5 811 L 567.5 812 L 512.5 812 L 511.5 811 L 500.5 811 L 496.5 812 Q 493.8 810.8 496 809.5 L 501 800 Q 503.7 801.1 503 798.5 L 506 797 L 507.5 794 L 520.5 786 L 528.5 784 Z " /><path fill="rgb(0,0,0)" stroke="rgb(0,0,0)" stroke-width="1" opacity="0" d="M 258.5 789 L 267.5 789 L 285.5 794 L 303 807.5 L 305 810.5 L 311 817.5 L 317 836.5 L 317 838.5 Q 318.5 846 316 849.5 L 316 851.5 L 311 869.5 L 294.5 888 L 279.5 895 L 258.5 897 L 244.5 894 L 233.5 888 L 230 884.5 L 220 870.5 L 216 861.5 L 216 859.5 L 215 857.5 L 215 855.5 L 214 849.5 L 215 847.5 L 214 846.5 L 214 838.5 L 215 836.5 L 215 834.5 L 215 829.5 L 219 818.5 Q 226.1 806.6 236.5 798 L 239 796.5 Q 238.2 793.9 241.5 795 L 258.5 789 Z " /><path fill="rgb(0,0,0)" stroke="rgb(0,0,0)" stroke-width="1" opacity="0" d="M 1104.5 789 Q 1113.8 787.7 1118.5 791 L 1120.5 791 L 1135 795 Q 1133.9 797.7 1136.5 797 L 1149 807.5 L 1156 817.5 L 1163 835.5 L 1162 840.5 L 1162 842.5 L 1163 845.5 L 1161 854.5 L 1161 856.5 L 1160 861.5 L 1152 873.5 L 1152 876 Q 1149.3 874.9 1150 877.5 L 1147.5 881 Q 1138.8 891.3 1123.5 895 L 1118.5 896 L 1100.5 896 Q 1081.5 892.5 1072 879.5 L 1068 874.5 L 1063 863.5 L 1060 848.5 L 1061 845.5 L 1060 841.5 L 1061 838.5 L 1061 836.5 L 1062 831.5 L 1062 829.5 Q 1065.3 811.8 1076.5 802 L 1089.5 793 L 1104.5 789 Z " /><path fill="rgb(0,0,0)" stroke="rgb(0,0,0)" stroke-width="1" opacity="0" d="M 914 884 L 922.5 884 L 923 884.5 L 923 951.5 Q 921.5 954.5 915.5 953 L 914 951.5 L 914 884 Z " /><path fill="rgb(0,0,0)" stroke="rgb(0,0,0)" stroke-width="1" opacity="0" d="M 914 996 L 922.5 996 L 923 996.5 L 923 1064 L 914.5 1064 L 914 1063.5 L 914 996 Z " /><path fill="rgb(0,0,0)" stroke="rgb(0,0,0)" stroke-width="1" opacity="0" d="M 424.5 1101 L 440.5 1102 Q 449.5 1106 455 1113.5 L 457 1118 Q 459.7 1116.9 459 1119.5 L 462 1129.5 L 462 1143.5 L 461 1148.5 L 454 1161 L 444.5 1168 L 433.5 1171 L 427.5 1171 L 424.5 1170 Q 411.9 1169.1 407 1160.5 L 400 1149.5 L 398 1141.5 L 398 1139.5 Q 396.7 1134.7 399 1133.5 L 399 1131.5 L 400 1122.5 L 409 1109 Q 414.9 1103.7 424.5 1101 Z " /><path fill="rgb(0,0,0)" stroke="rgb(0,0,0)" stroke-width="1" opacity="0" d="M 914 1107 L 922.5 1107 L 923 1107.5 L 923 1175 L 916.5 1176 L 914 1175 L 914 1107 Z " /><path fill="rgb(0,0,0)" stroke="rgb(0,0,0)" stroke-width="1" opacity="0" d="M 1364.5 1159 L 1366.5 1160 L 1367.5 1159 L 1377.5 1159 L 1394.5 1164 L 1412 1176 L 1412 1178.5 L 1416 1182.5 L 1421 1191.5 L 1425 1205.5 L 1425 1207.5 L 1425 1220.5 L 1423 1230.5 Q 1417.9 1243.9 1408.5 1253 L 1406 1254.5 Q 1406.8 1256.8 1404.5 1256 L 1401.5 1259 L 1388.5 1265 L 1377.5 1267 L 1365.5 1267 L 1348.5 1262 L 1342 1258 L 1340.5 1255 L 1338 1253.5 L 1336 1250.5 L 1329 1240.5 L 1324 1226.5 Q 1321.2 1217.8 1323 1204.5 L 1327 1190.5 L 1336 1175 L 1339 1173.5 L 1342.5 1169 L 1347.5 1165 L 1364.5 1159 Z " /><path fill="rgb(0,0,0)" stroke="rgb(0,0,0)" stroke-width="1" opacity="0" d="M 1746.5 1159 L 1749.5 1160 L 1753.5 1159 L 1768.5 1162 L 1777.5 1166 L 1791 1178.5 L 1801 1194.5 L 1804 1208.5 L 1804 1220.5 L 1802 1225.5 Q 1804.5 1227 1801 1228.5 L 1800 1234.5 L 1791 1249 Q 1788.3 1247.9 1789 1250.5 L 1786 1252 L 1781.5 1258 L 1770.5 1264 L 1756.5 1267 L 1746.5 1267 L 1743.5 1266 L 1730.5 1263 L 1720 1256.5 Q 1720.8 1254.3 1718.5 1255 L 1707 1240.5 L 1703 1229.5 L 1701 1220.5 L 1701 1204.5 L 1706 1188.5 L 1715.5 1175 L 1718 1173.5 L 1719.5 1171 L 1730.5 1164 L 1746.5 1159 Z " /><path fill="rgb(0,0,0)" stroke="rgb(0,0,0)" stroke-width="1" opacity="0" d="M 914 1219 L 922.5 1219 L 923 1219.5 L 923 1287 L 914.5 1287 L 914 1286.5 L 914 1219 Z " /></svg>